<svg viewBox="0 0 256 153" xmlns="http://www.w3.org/2000/svg">
  <path fill="#252F3E" d="M72.4 50.4C72.4 78.8 94 101.6 121 104v-35.8c0-6.3-4.5-12.4-11.1-14.5-10.3-3.3-22.8-6.1-37.5-3.3"/>
  <path fill="#FF9900" d="M128 0C57.3 0 0 34.2 0 76.5c0 24.1 16.6 45.8 43 60.1l6.4-6.9c-24-12.8-39.4-31.4-39.4-53.2C10 39 63.1 10 128 10s118 29 118 66.5c0 21.8-15.4 40.4-39.4 53.2l6.4 6.9c26.4-14.3 43-36 43-60.1C256 34.2 198.7 0 128 0z"/>
  <path fill="#FF9900" d="M228.7 136.6c-3.2 2.4-6.5 4.6-9.9 6.6l25.8 9.5 9.5-25.8c-1.8 3.5-3.9 6.9-6.2 10.1l-19.2-.4z"/>
</svg>
