<svg viewBox="0 0 38 57" xmlns="http://www.w3.org/2000/svg">
  <path d="M19 28.5C19 23.2533 14.7467 19 9.5 19C4.25329 19 0 23.2533 0 28.5C0 33.7467 4.25329 38 9.5 38C14.7467 38 19 33.7467 19 28.5Z" fill="#A259FF"/>
  <path d="M19 0V19H9.5C4.25329 19 0 14.7467 0 9.5C0 4.25329 4.25329 0 9.5 0H19Z" fill="#F24E1E"/>
  <path d="M19 0H28.5C33.7467 0 38 4.25329 38 9.5C38 14.7467 33.7467 19 28.5 19H19V0Z" fill="#FF7262"/>
  <path d="M38 28.5C38 33.7467 33.7467 38 28.5 38C23.2533 38 19 33.7467 19 28.5C19 23.2533 23.2533 19 28.5 19C33.7467 19 38 23.2533 38 28.5Z" fill="#1ABCFE"/>
  <path d="M19 47.5C19 52.7467 14.7467 57 9.5 57C4.25329 57 0 52.7467 0 47.5C0 42.2533 4.25329 38 9.5 38H19V47.5Z" fill="#0ACF83"/>
</svg>
