<svg viewBox="0 0 256 289" xmlns="http://www.w3.org/2000/svg">
  <path fill="#539E43" d="M128 0C57.3 0 0 28.5 0 63.6c0 19.1 17.3 36.8 45.3 49.3-4.4 9.3-7.5 19.3-9.1 29.4-5.5 33.4 3.4 57.4 24.5 66.4 5.6 2.4 11.6 3.6 17.9 3.6 18.1 0 38.7-10.4 58.2-28.2 19.5 17.8 40.1 28.2 58.2 28.2 6.3 0 12.3-1.2 17.9-3.6 21.1-9 29.9-33 24.5-66.4-1.6-10.1-4.7-20.1-9.1-29.4C256.7 100.4 276 82.7 276 63.6 256 28.5 198.7 0 128 0z"/>
  <path fill="#333" d="M128 200c-17.7 0-32-14.3-32-32s14.3-32 32-32 32 14.3 32 32-14.3 32-32 32z"/>
</svg>
